# 3ds Max Wavefront OBJ Exporter v0.99 - (c)2007 guruware
# File Created: 11.10.2025 20:39:07

mtllib Redil.mtl

#
# object Redil
#

v  7.4631 2.4139 5.5971
v  8.0537 2.4192 5.6113
v  8.0800 2.4926 5.0208
v  7.4895 2.4956 5.0065
v  7.4252 0.0000 5.6667
v  8.0157 0.0000 5.6828
v  8.0461 0.0000 5.0922
v  7.4555 0.0000 5.0761
v  23.4039 2.4139 5.5971
v  23.3775 2.4956 5.0065
v  22.7870 2.4926 5.0208
v  22.8133 2.4192 5.6113
v  23.4418 0.0000 5.6667
v  22.8513 0.0000 5.6828
v  22.8209 0.0000 5.0922
v  23.4115 0.0000 5.0761
v  7.6899 0.2925 5.1290
v  7.6600 0.2925 0.2078
v  7.8541 0.2925 0.2085
v  7.8840 0.2925 5.1298
v  7.6723 0.6885 5.1345
v  7.8665 0.6885 5.1333
v  7.8842 0.6885 0.2120
v  7.6901 0.6885 0.2133
v  23.1771 0.2925 5.1290
v  22.9830 0.2925 5.1298
v  23.0129 0.2925 0.2085
v  23.2070 0.2925 0.2078
v  23.1946 0.6885 5.1345
v  23.1769 0.6885 0.2133
v  22.9828 0.6885 0.2120
v  23.0005 0.6885 5.1333
v  7.6925 1.0818 5.0277
v  7.7746 1.0818 0.1064
v  7.9687 1.0818 0.1062
v  7.8866 1.0818 5.0275
v  7.6416 1.4778 5.0287
v  7.8357 1.4778 5.0300
v  7.9363 1.4778 0.1087
v  7.7422 1.4778 0.1074
v  23.1745 1.0818 5.0277
v  22.9804 1.0818 5.0275
v  22.8982 1.0818 0.1062
v  23.0924 1.0818 0.1064
v  23.2254 1.4778 5.0287
v  23.1248 1.4778 0.1074
v  22.9306 1.4778 0.1087
v  23.0313 1.4778 5.0300
v  7.6371 1.8711 5.0299
v  7.8159 1.8711 0.1086
v  8.0100 1.8711 0.1077
v  7.8313 1.8711 5.0290
v  7.5792 2.2671 5.0267
v  7.7733 2.2671 5.0236
v  7.9966 2.2671 0.1023
v  7.8025 2.2671 0.1055
v  23.2299 1.8711 5.0299
v  23.0357 1.8711 5.0290
v  22.8570 1.8711 0.1077
v  23.0511 1.8711 0.1086
v  23.2878 2.2671 5.0267
v  23.0645 2.2671 0.1055
v  22.8704 2.2671 0.1023
v  23.0937 2.2671 5.0236
v  7.4631 2.4139 0.1597
v  8.0537 2.4192 0.1740
v  8.0800 2.4023 -0.4166
v  7.4895 2.3715 -0.4308
v  7.4252 0.0000 0.2293
v  8.0157 0.0000 0.2455
v  8.0461 0.0000 -0.3451
v  7.4555 0.0452 -0.3612
v  23.4039 2.4139 0.1597
v  23.3775 2.3715 -0.4308
v  22.7870 2.4023 -0.4166
v  22.8133 2.4192 0.1740
v  23.4418 0.0000 0.2293
v  22.8513 0.0000 0.2455
v  22.8209 0.0000 -0.3451
v  23.4115 0.0452 -0.3612
v  7.9930 0.2925 -5.5260
v  12.9142 0.2925 -5.5560
v  12.9135 0.2925 -5.3618
v  7.9922 0.2925 -5.3319
v  7.9875 0.6885 -5.5436
v  7.9887 0.6885 -5.3495
v  12.9100 0.6885 -5.3317
v  12.9087 0.6885 -5.5259
v  8.0440 1.0818 -5.5234
v  12.9653 1.0818 -5.4413
v  12.9655 1.0818 -5.2472
v  8.0443 1.0818 -5.3293
v  8.0430 1.4778 -5.5744
v  8.0418 1.4778 -5.3802
v  12.9630 1.4778 -5.2796
v  12.9643 1.4778 -5.4737
v  8.0523 1.8711 -5.5788
v  12.9736 1.8711 -5.4001
v  12.9745 1.8711 -5.2059
v  8.0533 1.8711 -5.3847
v  8.0555 2.2671 -5.6368
v  8.0587 2.2671 -5.4426
v  12.9799 2.2671 -5.2193
v  12.9768 2.2671 -5.4135
v  17.6879 2.4139 5.1739
v  17.6737 2.4192 5.7644
v  18.2642 2.4023 5.7908
v  18.2785 2.3715 5.2002
v  17.6183 0.0000 5.1359
v  17.6022 0.0000 5.7265
v  18.1928 0.0000 5.7568
v  18.2089 0.0452 5.1662
v  13.3326 2.4139 5.1739
v  12.7421 2.3715 5.2002
v  12.7563 2.4023 5.7908
v  13.3469 2.4192 5.7644
v  13.4022 0.0000 5.1359
v  13.4183 0.0000 5.7265
v  12.8278 0.0000 5.7568
v  12.8117 0.0452 5.1662
v  7.7746 1.0818 -0.1995
v  7.6925 1.0818 -5.1207
v  7.8866 1.0818 -5.1205
v  7.9687 1.0818 -0.1992
v  7.8357 1.4778 -5.1230
v  7.6416 1.4778 -5.1217
v  7.7422 1.4778 -0.2005
v  7.9363 1.4778 -0.2017
v  23.0924 1.0818 -0.1995
v  22.8982 1.0818 -0.1992
v  22.9804 1.0818 -5.1205
v  23.1745 1.0818 -5.1207
v  23.0313 1.4778 -5.1230
v  22.9306 1.4778 -0.2017
v  23.1248 1.4778 -0.2005
v  23.2254 1.4778 -5.1217
v  7.8159 1.8711 -0.2017
v  7.6371 1.8711 -5.1229
v  7.8313 1.8711 -5.1220
v  8.0100 1.8711 -0.2007
v  7.7733 2.2671 -5.1166
v  7.5792 2.2671 -5.1197
v  7.8025 2.2671 -0.1985
v  7.9966 2.2671 -0.1953
v  23.0511 1.8711 -0.2017
v  22.8570 1.8711 -0.2007
v  23.0357 1.8711 -5.1220
v  23.2299 1.8711 -5.1229
v  23.0937 2.2671 -5.1166
v  22.8704 2.2671 -0.1953
v  23.0645 2.2671 -0.1985
v  23.2878 2.2671 -5.1197
v  7.4631 2.4139 -5.6901
v  7.4895 2.4956 -5.0995
v  8.0800 2.4926 -5.1138
v  8.0537 2.4192 -5.7044
v  7.4252 0.0000 -5.7597
v  8.0157 0.0000 -5.7758
v  8.0461 0.0000 -5.1853
v  7.4555 0.0000 -5.1691
v  23.4039 2.4139 -5.6901
v  22.8133 2.4192 -5.7044
v  22.7870 2.4926 -5.1138
v  23.3775 2.4956 -5.0995
v  23.4418 0.0000 -5.7597
v  22.8513 0.0000 -5.7758
v  22.8209 0.0000 -5.1853
v  23.4115 0.0000 -5.1691
v  7.6600 0.2925 -0.3008
v  7.6899 0.2925 -5.2221
v  7.8840 0.2925 -5.2228
v  7.8541 0.2925 -0.3016
v  7.8665 0.6885 -5.2263
v  7.6723 0.6885 -5.2276
v  7.6901 0.6885 -0.3063
v  7.8842 0.6885 -0.3050
v  23.2070 0.2925 -0.3008
v  23.0129 0.2925 -0.3016
v  22.9830 0.2925 -5.2228
v  23.1771 0.2925 -5.2221
v  23.0005 0.6885 -5.2263
v  22.9828 0.6885 -0.3050
v  23.1769 0.6885 -0.3063
v  23.1946 0.6885 -5.2276
v  17.9078 1.0818 -5.4413
v  22.8291 1.0818 -5.5234
v  22.8288 1.0818 -5.3293
v  17.9076 1.0818 -5.2472
v  22.8313 1.4778 -5.3802
v  22.8301 1.4778 -5.5744
v  17.9088 1.4778 -5.4737
v  17.9101 1.4778 -5.2796
v  17.9100 1.8711 -5.4001
v  22.8313 1.8711 -5.5788
v  22.8303 1.8711 -5.3847
v  17.9091 1.8711 -5.2059
v  22.8249 2.2671 -5.4426
v  22.8281 2.2671 -5.6368
v  17.9068 2.2671 -5.4135
v  17.9037 2.2671 -5.2193
v  18.0092 0.2925 -5.5560
v  22.9304 0.2925 -5.5260
v  22.9312 0.2925 -5.3319
v  18.0099 0.2925 -5.3618
v  22.9346 0.6885 -5.3495
v  22.9359 0.6885 -5.5436
v  18.0146 0.6885 -5.5259
v  18.0134 0.6885 -5.3317
v  12.8417 1.0818 5.3508
v  12.8419 1.0818 5.5449
v  7.9923 1.0818 5.4628
v  7.9920 1.0818 5.2687
v  7.9898 1.4778 5.4119
v  12.8394 1.4778 5.5125
v  12.8407 1.4778 5.3184
v  7.9910 1.4778 5.2177
v  12.8395 1.8711 5.3920
v  12.8404 1.8711 5.5862
v  7.9908 1.8711 5.4075
v  7.9899 1.8711 5.2133
v  7.9962 2.2671 5.3495
v  12.8458 2.2671 5.5728
v  12.8427 2.2671 5.3787
v  7.9930 2.2671 5.1553
v  12.8517 0.2925 5.2361
v  12.8509 0.2925 5.4303
v  8.0013 0.2925 5.4602
v  8.0021 0.2925 5.2661
v  7.9978 0.6885 5.4427
v  12.8475 0.6885 5.4604
v  12.8462 0.6885 5.2662
v  7.9966 0.6885 5.2485
v  12.9623 2.4139 -5.7528
v  12.9480 2.4192 -5.1622
v  13.5385 2.4023 -5.1359
v  13.5528 2.3715 -5.7265
v  12.8927 0.0000 -5.7908
v  12.8765 0.0000 -5.2002
v  13.4671 0.0000 -5.1699
v  13.4832 0.0452 -5.7604
v  17.4832 2.4139 -5.7528
v  17.4689 2.4192 -5.1622
v  18.0595 2.4023 -5.1359
v  18.0738 2.3715 -5.7265
v  17.4136 0.0000 -5.7908
v  17.3975 0.0000 -5.2002
v  17.9880 0.0000 -5.1699
v  18.0042 0.0452 -5.7604
v  18.1808 1.0818 5.3508
v  22.9320 1.0818 5.2687
v  22.9317 1.0818 5.4628
v  18.1806 1.0818 5.5449
v  22.9342 1.4778 5.4119
v  22.9330 1.4778 5.2177
v  18.1818 1.4778 5.3184
v  18.1831 1.4778 5.5125
v  18.1830 1.8711 5.3920
v  22.9342 1.8711 5.2133
v  22.9332 1.8711 5.4075
v  18.1821 1.8711 5.5862
v  22.9278 2.2671 5.3495
v  22.9310 2.2671 5.1553
v  18.1798 2.2671 5.3787
v  18.1767 2.2671 5.5728
v  18.1708 0.2925 5.2361
v  22.9220 0.2925 5.2661
v  22.9227 0.2925 5.4602
v  18.1716 0.2925 5.4303
v  22.9262 0.6885 5.4427
v  22.9275 0.6885 5.2485
v  18.1763 0.6885 5.2662
v  18.1750 0.6885 5.4604
v  13.4635 1.0818 -5.4144
v  17.4770 1.0818 -5.4965
v  17.4768 1.0818 -5.3024
v  13.4632 1.0818 -5.2203
v  17.4793 1.4778 -5.3533
v  17.4780 1.4778 -5.5475
v  13.4645 1.4778 -5.4468
v  13.4657 1.4778 -5.2527
v  13.4656 1.8711 -5.3732
v  17.4792 1.8711 -5.5519
v  17.4783 1.8711 -5.3578
v  13.4647 1.8711 -5.1790
v  17.4729 2.2671 -5.4157
v  17.4760 2.2671 -5.6099
v  13.4625 2.2671 -5.3865
v  13.4593 2.2671 -5.1924
v  13.4534 0.2925 -5.5291
v  17.4670 0.2925 -5.4991
v  17.4678 0.2925 -5.3050
v  13.4542 0.2925 -5.3349
v  17.4712 0.6885 -5.3225
v  17.4725 0.6885 -5.5167
v  13.4589 0.6885 -5.4990
v  13.4577 0.6885 -5.3048
# 296 vertices

vn -0.0050 0.9915 0.1300
vn -0.0258 0.0296 0.9992
vn 0.9988 -0.0133 0.0471
vn 0.0256 -0.0286 -0.9993
vn -0.9988 0.0133 -0.0470
vn 0.0050 0.9915 0.1300
vn 0.0258 0.0296 0.9992
vn -0.9988 -0.0133 0.0471
vn -0.0256 -0.0286 -0.9993
vn 0.9988 0.0133 -0.0470
vn 0.0000 -1.0000 -0.0000
vn 0.0000 1.0000 -0.0000
vn 0.0013 -0.0112 0.9999
vn 0.9999 -0.0158 -0.0012
vn -0.0013 0.0114 -0.9999
vn -0.9999 0.0158 0.0012
vn -0.0013 -0.0112 0.9999
vn -0.9999 -0.0158 -0.0012
vn 0.0013 0.0114 -0.9999
vn 0.9999 0.0158 0.0012
vn -0.0026 -0.0047 1.0000
vn 0.9944 0.1045 0.0185
vn 0.0026 0.0046 -1.0000
vn -0.9943 -0.1046 -0.0185
vn 0.0026 -0.0047 1.0000
vn -0.9944 0.1045 0.0185
vn -0.0026 0.0046 -1.0000
vn 0.9943 -0.1046 -0.0185
vn 0.0105 0.0124 0.9999
vn 0.9951 0.0902 0.0406
vn -0.0105 -0.0112 -0.9999
vn -0.9951 -0.0900 -0.0406
vn -0.0105 0.0124 0.9999
vn -0.9951 0.0902 0.0406
vn 0.0105 -0.0112 -0.9999
vn 0.9951 -0.0900 -0.0406
vn -0.0293 0.9982 -0.0514
vn 0.9988 -0.0135 0.0481
vn 0.0253 -0.0302 -0.9992
vn -0.9988 0.0138 -0.0479
vn 0.0293 0.9982 -0.0514
vn -0.9988 -0.0135 0.0481
vn -0.0253 -0.0302 -0.9992
vn 0.9988 0.0138 -0.0479
vn -0.9999 -0.0112 0.0013
vn 0.0012 -0.0158 0.9999
vn 0.9999 0.0114 -0.0013
vn -0.0012 0.0158 -0.9999
vn -1.0000 -0.0047 -0.0026
vn -0.0185 0.1045 0.9944
vn 1.0000 0.0046 0.0026
vn 0.0185 -0.1046 -0.9943
vn -0.9999 0.0124 0.0105
vn -0.0406 0.0902 0.9951
vn 0.9999 -0.0112 -0.0105
vn 0.0406 -0.0900 -0.9951
vn 0.0514 0.9982 -0.0293
vn -0.9992 0.0296 -0.0258
vn -0.0481 -0.0135 0.9988
vn 0.9992 -0.0302 0.0253
vn 0.0479 0.0138 -0.9988
vn -0.0514 0.9982 -0.0293
vn 0.9992 0.0296 -0.0258
vn 0.0481 -0.0135 0.9988
vn -0.9992 -0.0302 0.0253
vn -0.0479 0.0138 -0.9988
vn -0.0026 -0.0047 -1.0000
vn 0.9944 0.1045 -0.0185
vn 0.0026 0.0046 1.0000
vn -0.9943 -0.1046 0.0185
vn 0.0026 -0.0047 -1.0000
vn -0.9944 0.1045 -0.0185
vn -0.0026 0.0046 1.0000
vn 0.9943 -0.1046 0.0185
vn 0.0105 0.0124 -0.9999
vn 0.9951 0.0902 -0.0406
vn -0.0105 -0.0112 0.9999
vn -0.9951 -0.0900 0.0406
vn -0.0105 0.0124 -0.9999
vn -0.9951 0.0902 -0.0406
vn 0.0105 -0.0112 0.9999
vn 0.9951 -0.0900 0.0406
vn -0.0050 0.9915 -0.1300
vn -0.0258 0.0296 -0.9992
vn 0.9988 -0.0133 -0.0471
vn 0.0256 -0.0286 0.9993
vn -0.9988 0.0133 0.0470
vn 0.0050 0.9915 -0.1300
vn 0.0258 0.0296 -0.9992
vn -0.9988 -0.0133 -0.0471
vn -0.0256 -0.0286 0.9993
vn 0.9988 0.0133 0.0470
vn 0.0013 -0.0112 -0.9999
vn 0.9999 -0.0158 0.0012
vn -0.0013 0.0114 0.9999
vn -0.9999 0.0158 -0.0012
vn -0.0013 -0.0112 -0.9999
vn -0.9999 -0.0158 0.0012
vn 0.0013 0.0114 0.9999
vn 0.9999 0.0158 -0.0012
vn 1.0000 -0.0047 -0.0026
vn 0.0185 0.1045 0.9944
vn -1.0000 0.0046 0.0026
vn -0.0185 -0.1046 -0.9943
vn 0.9999 0.0124 0.0105
vn 0.0406 0.0902 0.9951
vn -0.9999 -0.0112 -0.0105
vn -0.0406 -0.0900 -0.9951
vn 0.9999 -0.0112 0.0013
vn -0.0012 -0.0158 0.9999
vn -0.9999 0.0114 -0.0013
vn 0.0012 0.0158 -0.9999
vn -0.0187 0.1045 0.9943
vn 0.0187 -0.1046 -0.9943
vn -0.0412 0.0902 0.9951
vn 0.0412 -0.0900 -0.9951
vn 0.0013 -0.0158 0.9999
vn -0.0013 0.0158 -0.9999
vn 0.0191 0.1045 0.9943
vn -0.0191 -0.1046 -0.9943
vn 0.0421 0.0902 0.9950
vn -0.0421 -0.0900 -0.9951
vn -0.0013 -0.0158 0.9999
vn 0.0013 0.0158 -0.9999
vn 0.0226 0.1045 0.9943
vn -0.0226 -0.1046 -0.9943
vn 0.0498 0.0903 0.9947
vn -0.0498 -0.0900 -0.9947
vn -0.0015 -0.0158 0.9999
vn 0.0015 0.0158 -0.9999
# 130 vertex normals

vt 0.0000 0.0000 0.0000
vt 1.0000 0.0000 0.0000
vt 1.0000 1.0000 0.0000
vt 0.0000 1.0000 0.0000
# 4 texture coords

o Redil
g Redil
usemtl wire_168217103
s 4
f 1/1/1 2/2/1 3/3/1 4/4/1 
s 8
f 5/1/2 6/2/2 2/3/2 1/4/2 
s 16
f 6/1/3 7/2/3 3/3/3 2/4/3 
s 32
f 7/1/4 8/2/4 4/3/4 3/4/4 
s 64
f 8/1/5 5/2/5 1/3/5 4/4/5 
s 4
f 9/1/6 10/4/6 11/3/6 12/2/6 
s 8
f 13/1/7 9/4/7 12/3/7 14/2/7 
s 16
f 14/1/8 12/4/8 11/3/8 15/2/8 
s 32
f 15/1/9 11/4/9 10/3/9 16/2/9 
s 64
f 16/1/10 10/4/10 9/3/10 13/2/10 
s 2
f 17/2/11 18/3/11 19/4/11 20/1/11 
s 4
f 21/1/12 22/2/12 23/3/12 24/4/12 
s 8
f 17/1/13 20/2/13 22/3/13 21/4/13 
s 16
f 20/1/14 19/2/14 23/3/14 22/4/14 
s 32
f 19/1/15 18/2/15 24/3/15 23/4/15 
s 64
f 18/1/16 17/2/16 21/3/16 24/4/16 
s 2
f 25/2/11 26/1/11 27/4/11 28/3/11 
s 4
f 29/1/12 30/4/12 31/3/12 32/2/12 
s 8
f 25/1/17 29/4/17 32/3/17 26/2/17 
s 16
f 26/1/18 32/4/18 31/3/18 27/2/18 
s 32
f 27/1/19 31/4/19 30/3/19 28/2/19 
s 64
f 28/1/20 30/4/20 29/3/20 25/2/20 
s 2
f 33/2/11 34/3/11 35/4/11 36/1/11 
s 4
f 37/1/12 38/2/12 39/3/12 40/4/12 
s 8
f 33/1/21 36/2/21 38/3/21 37/4/21 
s 16
f 36/1/22 35/2/22 39/3/22 38/4/22 
s 32
f 35/1/23 34/2/23 40/3/23 39/4/23 
s 64
f 34/1/24 33/2/24 37/3/24 40/4/24 
s 2
f 41/2/11 42/1/11 43/4/11 44/3/11 
s 4
f 45/1/12 46/4/12 47/3/12 48/2/12 
s 8
f 41/1/25 45/4/25 48/3/25 42/2/25 
s 16
f 42/1/26 48/4/26 47/3/26 43/2/26 
s 32
f 43/1/27 47/4/27 46/3/27 44/2/27 
s 64
f 44/1/28 46/4/28 45/3/28 41/2/28 
s 2
f 49/2/11 50/3/11 51/4/11 52/1/11 
s 4
f 53/1/12 54/2/12 55/3/12 56/4/12 
s 8
f 49/1/29 52/2/29 54/3/29 53/4/29 
s 16
f 52/1/30 51/2/30 55/3/30 54/4/30 
s 32
f 51/1/31 50/2/31 56/3/31 55/4/31 
s 64
f 50/1/32 49/2/32 53/3/32 56/4/32 
s 2
f 57/2/11 58/1/11 59/4/11 60/3/11 
s 4
f 61/1/12 62/4/12 63/3/12 64/2/12 
s 8
f 57/1/33 61/4/33 64/3/33 58/2/33 
s 16
f 58/1/34 64/4/34 63/3/34 59/2/34 
s 32
f 59/1/35 63/4/35 62/3/35 60/2/35 
s 64
f 60/1/36 62/4/36 61/3/36 57/2/36 
s 4
f 65/1/37 66/2/37 67/3/37 68/4/37 
s 8
f 69/1/2 70/2/2 66/3/2 65/4/2 
s 16
f 70/1/38 71/2/38 67/3/38 66/4/38 
s 32
f 71/1/39 72/2/39 68/3/39 67/4/39 
s 64
f 72/1/40 69/2/40 65/3/40 68/4/40 
s 4
f 73/1/41 74/4/41 75/3/41 76/2/41 
s 8
f 77/1/7 73/4/7 76/3/7 78/2/7 
s 16
f 78/1/42 76/4/42 75/3/42 79/2/42 
s 32
f 79/1/43 75/4/43 74/3/43 80/2/43 
s 64
f 80/1/44 74/4/44 73/3/44 77/2/44 
s 2
f 81/2/11 82/3/11 83/4/11 84/1/11 
s 4
f 85/1/12 86/2/12 87/3/12 88/4/12 
s 8
f 81/1/45 84/2/45 86/3/45 85/4/45 
s 16
f 84/1/46 83/2/46 87/3/46 86/4/46 
s 32
f 83/1/47 82/2/47 88/3/47 87/4/47 
s 64
f 82/1/48 81/2/48 85/3/48 88/4/48 
s 2
f 89/2/11 90/3/11 91/4/11 92/1/11 
s 4
f 93/1/12 94/2/12 95/3/12 96/4/12 
s 8
f 89/1/49 92/2/49 94/3/49 93/4/49 
s 16
f 92/1/50 91/2/50 95/3/50 94/4/50 
s 32
f 91/1/51 90/2/51 96/3/51 95/4/51 
s 64
f 90/1/52 89/2/52 93/3/52 96/4/52 
s 2
f 97/2/11 98/3/11 99/4/11 100/1/11 
s 4
f 101/1/12 102/2/12 103/3/12 104/4/12 
s 8
f 97/1/53 100/2/53 102/3/53 101/4/53 
s 16
f 100/1/54 99/2/54 103/3/54 102/4/54 
s 32
f 99/1/55 98/2/55 104/3/55 103/4/55 
s 64
f 98/1/56 97/2/56 101/3/56 104/4/56 
s 4
f 105/1/57 106/2/57 107/3/57 108/4/57 
s 8
f 109/1/58 110/2/58 106/3/58 105/4/58 
s 16
f 110/1/59 111/2/59 107/3/59 106/4/59 
s 32
f 111/1/60 112/2/60 108/3/60 107/4/60 
s 64
f 112/1/61 109/2/61 105/3/61 108/4/61 
s 4
f 113/1/62 114/4/62 115/3/62 116/2/62 
s 8
f 117/1/63 113/4/63 116/3/63 118/2/63 
s 16
f 118/1/64 116/4/64 115/3/64 119/2/64 
s 32
f 119/1/65 115/4/65 114/3/65 120/2/65 
s 64
f 120/1/66 114/4/66 113/3/66 117/2/66 
s 2
f 121/3/11 122/2/11 123/1/11 124/4/11 
s 4
f 125/2/12 126/1/12 127/4/12 128/3/12 
s 8
f 123/2/67 122/1/67 126/4/67 125/3/67 
s 16
f 124/2/68 123/1/68 125/4/68 128/3/68 
s 32
f 121/2/69 124/1/69 128/4/69 127/3/69 
s 64
f 122/2/70 121/1/70 127/4/70 126/3/70 
s 2
f 129/3/11 130/4/11 131/1/11 132/2/11 
s 4
f 133/2/12 134/3/12 135/4/12 136/1/12 
s 8
f 131/2/71 133/3/71 136/4/71 132/1/71 
s 16
f 130/2/72 134/3/72 133/4/72 131/1/72 
s 32
f 129/2/73 135/3/73 134/4/73 130/1/73 
s 64
f 132/2/74 136/3/74 135/4/74 129/1/74 
s 2
f 137/3/11 138/2/11 139/1/11 140/4/11 
s 4
f 141/2/12 142/1/12 143/4/12 144/3/12 
s 8
f 139/2/75 138/1/75 142/4/75 141/3/75 
s 16
f 140/2/76 139/1/76 141/4/76 144/3/76 
s 32
f 137/2/77 140/1/77 144/4/77 143/3/77 
s 64
f 138/2/78 137/1/78 143/4/78 142/3/78 
s 2
f 145/3/11 146/4/11 147/1/11 148/2/11 
s 4
f 149/2/12 150/3/12 151/4/12 152/1/12 
s 8
f 147/2/79 149/3/79 152/4/79 148/1/79 
s 16
f 146/2/80 150/3/80 149/4/80 147/1/80 
s 32
f 145/2/81 151/3/81 150/4/81 146/1/81 
s 64
f 148/2/82 152/3/82 151/4/82 145/1/82 
s 4
f 153/1/83 154/4/83 155/3/83 156/2/83 
s 8
f 157/1/84 153/4/84 156/3/84 158/2/84 
s 16
f 158/1/85 156/4/85 155/3/85 159/2/85 
s 32
f 159/1/86 155/4/86 154/3/86 160/2/86 
s 64
f 160/1/87 154/4/87 153/3/87 157/2/87 
s 4
f 161/1/88 162/2/88 163/3/88 164/4/88 
s 8
f 165/1/89 166/2/89 162/3/89 161/4/89 
s 16
f 166/1/90 167/2/90 163/3/90 162/4/90 
s 32
f 167/1/91 168/2/91 164/3/91 163/4/91 
s 64
f 168/1/92 165/2/92 161/3/92 164/4/92 
s 2
f 169/3/11 170/2/11 171/1/11 172/4/11 
s 4
f 173/2/12 174/1/12 175/4/12 176/3/12 
s 8
f 171/2/93 170/1/93 174/4/93 173/3/93 
s 16
f 172/2/94 171/1/94 173/4/94 176/3/94 
s 32
f 169/2/95 172/1/95 176/4/95 175/3/95 
s 64
f 170/2/96 169/1/96 175/4/96 174/3/96 
s 2
f 177/3/11 178/4/11 179/1/11 180/2/11 
s 4
f 181/2/12 182/3/12 183/4/12 184/1/12 
s 8
f 179/2/97 181/3/97 184/4/97 180/1/97 
s 16
f 178/2/98 182/3/98 181/4/98 179/1/98 
s 32
f 177/2/99 183/3/99 182/4/99 178/1/99 
s 64
f 180/2/100 184/3/100 183/4/100 177/1/100 
s 2
f 185/3/11 186/2/11 187/1/11 188/4/11 
s 4
f 189/2/12 190/1/12 191/4/12 192/3/12 
s 8
f 187/2/101 186/1/101 190/4/101 189/3/101 
s 16
f 188/2/102 187/1/102 189/4/102 192/3/102 
s 32
f 185/2/103 188/1/103 192/4/103 191/3/103 
s 64
f 186/2/104 185/1/104 191/4/104 190/3/104 
s 2
f 193/3/11 194/2/11 195/1/11 196/4/11 
s 4
f 197/2/12 198/1/12 199/4/12 200/3/12 
s 8
f 195/2/105 194/1/105 198/4/105 197/3/105 
s 16
f 196/2/106 195/1/106 197/4/106 200/3/106 
s 32
f 193/2/107 196/1/107 200/4/107 199/3/107 
s 64
f 194/2/108 193/1/108 199/4/108 198/3/108 
s 2
f 201/3/11 202/2/11 203/1/11 204/4/11 
s 4
f 205/2/12 206/1/12 207/4/12 208/3/12 
s 8
f 203/2/109 202/1/109 206/4/109 205/3/109 
s 16
f 204/2/110 203/1/110 205/4/110 208/3/110 
s 32
f 201/2/111 204/1/111 208/4/111 207/3/111 
s 64
f 202/2/112 201/1/112 207/4/112 206/3/112 
s 2
f 209/3/11 210/4/11 211/1/11 212/2/11 
s 4
f 213/2/12 214/3/12 215/4/12 216/1/12 
s 8
f 211/2/49 213/3/49 216/4/49 212/1/49 
s 16
f 210/2/113 214/3/113 213/4/113 211/1/113 
s 32
f 209/2/51 215/3/51 214/4/51 210/1/51 
s 64
f 212/2/114 216/3/114 215/4/114 209/1/114 
s 2
f 217/3/11 218/4/11 219/1/11 220/2/11 
s 4
f 221/2/12 222/3/12 223/4/12 224/1/12 
s 8
f 219/2/53 221/3/53 224/4/53 220/1/53 
s 16
f 218/2/115 222/3/115 221/4/115 219/1/115 
s 32
f 217/2/55 223/3/55 222/4/55 218/1/55 
s 64
f 220/2/116 224/3/116 223/4/116 217/1/116 
s 2
f 225/3/11 226/4/11 227/1/11 228/2/11 
s 4
f 229/2/12 230/3/12 231/4/12 232/1/12 
s 8
f 227/2/45 229/3/45 232/4/45 228/1/45 
s 16
f 226/2/117 230/3/117 229/4/117 227/1/117 
s 32
f 225/2/47 231/3/47 230/4/47 226/1/47 
s 64
f 228/2/118 232/3/118 231/4/118 225/1/118 
s 4
f 233/1/57 234/2/57 235/3/57 236/4/57 
s 8
f 237/1/58 238/2/58 234/3/58 233/4/58 
s 16
f 238/1/59 239/2/59 235/3/59 234/4/59 
s 32
f 239/1/60 240/2/60 236/3/60 235/4/60 
s 64
f 240/1/61 237/2/61 233/3/61 236/4/61 
s 4
f 241/1/57 242/2/57 243/3/57 244/4/57 
s 8
f 245/1/58 246/2/58 242/3/58 241/4/58 
s 16
f 246/1/59 247/2/59 243/3/59 242/4/59 
s 32
f 247/1/60 248/2/60 244/3/60 243/4/60 
s 64
f 248/1/61 245/2/61 241/3/61 244/4/61 
s 2
f 249/3/11 250/2/11 251/1/11 252/4/11 
s 4
f 253/2/12 254/1/12 255/4/12 256/3/12 
s 8
f 251/2/101 250/1/101 254/4/101 253/3/101 
s 16
f 252/2/119 251/1/119 253/4/119 256/3/119 
s 32
f 249/2/103 252/1/103 256/4/103 255/3/103 
s 64
f 250/2/120 249/1/120 255/4/120 254/3/120 
s 2
f 257/3/11 258/2/11 259/1/11 260/4/11 
s 4
f 261/2/12 262/1/12 263/4/12 264/3/12 
s 8
f 259/2/105 258/1/105 262/4/105 261/3/105 
s 16
f 260/2/121 259/1/121 261/4/121 264/3/121 
s 32
f 257/2/107 260/1/107 264/4/107 263/3/107 
s 64
f 258/2/122 257/1/122 263/4/122 262/3/122 
s 2
f 265/3/11 266/2/11 267/1/11 268/4/11 
s 4
f 269/2/12 270/1/12 271/4/12 272/3/12 
s 8
f 267/2/109 266/1/109 270/4/109 269/3/109 
s 16
f 268/2/123 267/1/123 269/4/123 272/3/123 
s 32
f 265/2/111 268/1/111 272/4/111 271/3/111 
s 64
f 266/2/124 265/1/124 271/4/124 270/3/124 
s 2
f 273/3/11 274/2/11 275/1/11 276/4/11 
s 4
f 277/2/12 278/1/12 279/4/12 280/3/12 
s 8
f 275/2/101 274/1/101 278/4/101 277/3/101 
s 16
f 276/2/125 275/1/125 277/4/125 280/3/125 
s 32
f 273/2/103 276/1/103 280/4/103 279/3/103 
s 64
f 274/2/126 273/1/126 279/4/126 278/3/126 
s 2
f 281/3/11 282/2/11 283/1/11 284/4/11 
s 4
f 285/2/12 286/1/12 287/4/12 288/3/12 
s 8
f 283/2/105 282/1/105 286/4/105 285/3/105 
s 16
f 284/2/127 283/1/127 285/4/127 288/3/127 
s 32
f 281/2/107 284/1/107 288/4/107 287/3/107 
s 64
f 282/2/128 281/1/128 287/4/128 286/3/128 
s 2
f 289/3/11 290/2/11 291/1/11 292/4/11 
s 4
f 293/2/12 294/1/12 295/4/12 296/3/12 
s 8
f 291/2/109 290/1/109 294/4/109 293/3/109 
s 16
f 292/2/129 291/1/129 293/4/129 296/3/129 
s 32
f 289/2/111 292/1/111 296/4/111 295/3/111 
s 64
f 290/2/130 289/1/130 295/4/130 294/3/130 
# 212 polygons

